<?xml version="1.0" encoding="utf-8"?>
<!-- Generator: Adobe Illustrator 16.0.0, SVG Export Plug-In . SVG Version: 6.00 Build 0)  -->
<!DOCTYPE svg PUBLIC "-//W3C//DTD SVG 1.1//EN" "http://www.w3.org/Graphics/SVG/1.1/DTD/svg11.dtd">
<svg version="1.1" id="Layer_1" xmlns="http://www.w3.org/2000/svg" xmlns:xlink="http://www.w3.org/1999/xlink" x="0px" y="0px"
	 width="414.58px" height="271.95px" viewBox="0 0 414.58 271.95" enable-background="new 0 0 414.58 271.95" xml:space="preserve">
<g>
	<path fill="none" stroke="#FFFFFF" stroke-width="60" stroke-linejoin="round" stroke-miterlimit="10" d="M207.189,227.37
		c-19.686,15.401-44.475,24.582-71.408,24.582c-64.052,0-115.977-51.925-115.977-115.978S71.729,19.998,135.782,19.998
		c26.933,0,51.72,9.18,71.406,24.582"/>
	<path fill="none" stroke="#000000" stroke-width="20" stroke-linecap="round" stroke-linejoin="round" stroke-miterlimit="10" d="
		M207.189,227.37c-19.686,15.401-44.475,24.582-71.408,24.582c-64.052,0-115.977-51.925-115.977-115.978
		S71.729,19.998,135.782,19.998c26.933,0,51.72,9.18,71.406,24.582"/>
</g>
<g>
	<path fill="none" stroke="#FFFFFF" stroke-width="60" stroke-linejoin="round" stroke-miterlimit="10" d="M207.189,227.367
		c19.688,15.404,44.477,24.585,71.413,24.585c64.054,0,115.978-51.925,115.978-115.978S342.656,19.998,278.603,19.998
		c-26.935,0-51.726,9.18-71.413,24.584c27.133,21.228,44.568,54.272,44.568,91.393C251.758,173.094,234.32,206.139,207.189,227.367z
		"/>
	<path fill="none" stroke="#000000" stroke-width="20" stroke-linecap="round" stroke-linejoin="round" stroke-miterlimit="10" d="
		M207.189,227.367c19.688,15.404,44.477,24.585,71.413,24.585c64.054,0,115.978-51.925,115.978-115.978
		S342.656,19.998,278.603,19.998c-26.935,0-51.726,9.18-71.413,24.584c27.133,21.228,44.568,54.272,44.568,91.393
		C251.758,173.094,234.32,206.139,207.189,227.367z"/>
</g>
</svg>
