<?xml version="1.0" encoding="utf-8"?>
<!-- Generator: Adobe Illustrator 16.0.0, SVG Export Plug-In . SVG Version: 6.00 Build 0)  -->
<!DOCTYPE svg PUBLIC "-//W3C//DTD SVG 1.1//EN" "http://www.w3.org/Graphics/SVG/1.1/DTD/svg11.dtd">
<svg version="1.1" id="Layer_1" xmlns="http://www.w3.org/2000/svg" xmlns:xlink="http://www.w3.org/1999/xlink" x="0px" y="0px"
	 width="510px" height="375.54px" viewBox="0 0 510 375.54" enable-background="new 0 0 510 375.54" xml:space="preserve">
<path fill="#D1D3D4" stroke="#000000" stroke-width="2" stroke-miterlimit="10" d="M65.122,193.526c0,0-73.644,0.095-57.253-55.873
	c14.483-49.457,64.942-34.884,64.942-34.884S61.564,71.044,91.559,48.259c29.996-22.784,55.665-1.441,55.665-1.441
	s21.919-41.821,74.989-41.821c53.069,0,71.529,44.705,71.529,44.705s36.917-21.343,70.662-0.866
	c33.744,20.478,33.167,48.743,33.167,48.743s35.188-11.825,56.53,9.229c21.344,21.054,6.346,46.147,6.346,46.147
	s35.044,24.516,5.118,57.107c-29.923,32.592-62.225,17.305-62.225,17.305s-10.095,18.458-31.439,19.612
	c-21.342,1.154-45.569-11.248-45.569-11.248s-10.96,22.209-50.761,23.073c-39.803,0.865-56.242-21.054-56.242-21.054
	s-61.53,24.034-98.831,9.806C75.664,230.453,65.122,193.526,65.122,193.526z"/>
<g>
	<polyline fill="#F7941E" stroke="#000000" stroke-width="2" stroke-miterlimit="10" points="331.91,311.791 350.647,370.537 
		369.388,311.791 369.54,311.762 409.33,358.864 404.162,297.419 404.292,297.333 459.082,325.623 430.791,270.833 430.878,270.702 
		492.322,275.872 445.22,236.08 445.251,235.928 503.996,217.188 445.251,198.449 445.221,198.298 492.322,158.505 430.878,163.673 
		430.791,163.545 459.082,108.755 404.292,137.044 404.162,136.96 409.33,75.515 369.54,122.618 369.388,122.587 350.647,63.841 
		331.91,122.587 331.758,122.617 291.965,75.514 297.134,136.958 297.004,137.044 242.214,108.756 270.505,163.545 270.418,163.673 
		208.974,158.505 256.076,198.298 256.046,198.449 197.3,217.188 256.046,235.928 256.076,236.08 208.973,275.872 270.418,270.702 
		270.505,270.833 242.215,325.623 297.004,297.333 297.134,297.419 291.964,358.862 331.758,311.76 	"/>
	<circle fill="#FFF200" stroke="#000000" stroke-width="2" stroke-miterlimit="10" cx="350.648" cy="217.188" r="76.317"/>
</g>
</svg>
